# xmcd
#
# Track frame offsets: 
#        150
#        10055
#        19198
#        31034
#        39532
#        51299
#        69224
#        83234
#        95622
#        107917
#        118647
#        130423
#        143285
#        151786
#        162845
#        174226
#
# Disc length: 2551 seconds
#
# Revision: 1
# Processed by: cddbd v1.5.2PL0 Copyright (c) Steve Scherf et al.
# Submitted via: ExactAudioCopyFreeDBPlugin 1.0
#
DISCID=bc09f510
DTITLE=Various Artist - Classic country - the ultimate collection
DYEAR=1900
DGENRE=Country
TTITLE0=Johnny Cash - Hey Porter
TTITLE1=Frankie Laine - Rawhide
TTITLE2=Dolly Parton - Making Believe
TTITLE3=Patsy Cline - Come On In
TTITLE4=Billie Jo Spears - Ease The Want In Me
TTITLE5=Kenny Rogers - Something s Burning
TTITLE6=Jimmy Dean - Release Me
TTITLE7=Roy Acuff and His Smoky Mountain Boys - Prodigal Son
TTITLE8=Hank Williams - Cold Cold Heart
TTITLE9=Bill Monroe - Alabama Waltz
TTITLE10=Waylon Jennings - Crying
TTITLE11=Billie Jo Spears - Dallas
TTITLE12=Williie Nelson - I am Lonesome
TTITLE13=Wanda Jackson - Lovin Country Style
TTITLE14=Patsy Cline - The Heart You Break May Be Your Own
TTITLE15=Charlene - I ve Never Been to Me
EXTD=
EXTT0=
EXTT1=
EXTT2=
EXTT3=
EXTT4=
EXTT5=
EXTT6=
EXTT7=
EXTT8=
EXTT9=
EXTT10=
EXTT11=
EXTT12=
EXTT13=
EXTT14=
EXTT15=
PLAYORDER=
